<?xml version="1.0" encoding="UTF-8"?><svg xmlns="http://www.w3.org/2000/svg" viewBox="0 0 105.39 100.3"><defs><style>.cls-1{fill:#e76b2b;}.cls-2{fill:#e6582a;}.cls-3{fill:#ec822c;}</style></defs><g id="background"><rect width="105.39" height="100.3"/></g><g id="top"><path class="cls-3" d="M52.59,46.76c-.63,0-1.97.02-3.69.19-1.2.12-5.35.61-9.65,2.61-1.29.6-2.32,1.21-3.3,2.17-1.65,1.62-2.33,3.42-2.7,4.43-.61,1.67-.81,3.24-.83,4.57-1.35-.97-2.7-1.94-4.04-2.91-.06-5.12-.22-10.25.11-15.41.26-.81.8-1.86,1.54-2.98.59-.89,1.2-1.82,1.73-2.33.12.49.3,1.27.53,1.85.27.67.57,1.26.86,1.74-.35-1.73-.65-3.73-.78-5.96-.12-1.93-.17-4.01-.08-5.58.53-.76,1.25-1.55,2.17-2.64.73-.86,1.65-1.87,3.02-3.08.72-.64,1.76-1.51,3.02-2.33-.16.95-.35,2.33-.52,3.76-.23,1.71-.33,5.39-.33,5.81,0,.48-.02,3.92.21,6.42.65,1.19,1.21,2.24,1.86,3.42v-10.22c1.62-.58,3.04-.92,4.13-1.13,2.9-.56,5.28-.56,6.6-.55h-.09c1.31,0,3.7-.02,6.6.55,1.09.21,2.51.55,4.13,1.13v10.22c.65-1.19,1.21-2.24,1.86-3.42.23-2.5.21-5.94.21-6.42,0-.42-.1-4.1-.33-5.81-.17-1.43-.35-2.81-.52-3.76,1.25.82,2.3,1.69,3.02,2.33,1.36,1.21,2.29,2.22,3.02,3.08.92,1.09,1.64,1.88,2.17,2.64.1,1.57.04,3.65-.08,5.58-.14,2.23-.43,4.23-.78,5.96.29-.48.59-1.06.86-1.74.23-.58.41-1.37.53-1.85.53.51,1.15,1.44,1.73,2.33.74,1.12,1.28,2.17,1.54,2.98.33,5.16.17,10.29.11,15.41-1.35.97-2.7,1.94-4.04,2.91-.02-1.32-.22-2.9-.83-4.57-.37-1.01-1.05-2.81-2.7-4.43-.98-.97-2.01-1.57-3.3-2.17-4.3-2-8.45-2.49-9.65-2.61-1.72-.18-3.06-.19-3.69-.19"/></g><g id="drop"><path class="cls-3" d="M59.01,14.34c-.54.3-1.72,1.07-2.35,2.54-.25.58-.75,1.77-.2,2.9.08.16.43.82,1.2,1.17.76.34,1.81.34,2.58-.29.1-.08.88-.75.85-1.83-.02-.71-.42-1.24-.52-1.37-.27-.35-.45-.4-.98-1.01-.26-.31-.4-.46-.49-.65-.11-.23-.28-.71-.1-1.47Z"/><path class="cls-3" d="M45.67,14.34c.54.3,1.72,1.07,2.35,2.54.25.58.75,1.77.2,2.9-.08.16-.43.82-1.2,1.17-.76.34-1.81.34-2.58-.29-.1-.08-.88-.75-.85-1.83.02-.71.42-1.24.52-1.37.27-.35.45-.4.98-1.01.26-.31.4-.46.49-.65.11-.23.28-.71.1-1.47Z"/><path class="cls-3" d="M52.34,21.69c-.3.64-.62,1.09-.86,1.39-.4.5-.62.64-.81,1.08-.08.19-.31.71-.17,1.3.17.72.86,1.51,1.84,1.5,1.05,0,1.76-.92,1.84-1.67.06-.56-.09-1.12-.41-1.53-.24-.31-.41-.43-.75-.92-.32-.47-.55-.88-.69-1.14Z"/></g><g id="chin"><path class="cls-2" d="M46.17,82.85c-.59-1.01-1.18-2.56-1.63-4.43-.38-1.61-.61-3-.59-4.07.96-.78,3.04-2.5,6.17-2.89,1.25-.16,5.66-.68,8.85,1.57.66.47,1.33,1.03,1.65,1.39.1,1.15-.07,2.84-.7,4.87-.39,1.27-.85,2.7-1.33,3.46-1.17.56-3.19.9-5.72,1.07-2.99.19-5.44-.45-6.72-.96Z"/></g><g id="jaw"><path class="cls-2" d="M51.56,68.24s2.58.12,2.58.12h0c-.17,0,4.37.55,5.92,1.7,1.73,1.28,3.33,2.41,3.51,3.78.29,2.2-.06,3.72-.1,3.95-.23,1.23-.51,2.22-.72,2.9.83-.24,1.94-.61,3.21-1.17,2.81-1.26,4.68-2.72,5.24-3.16,1.65-1.33,3.28-2.62,4.4-4.96.49-1.02.78-1.99.95-2.8v-7.85c-.62.24-1.5.66-2.41,1.36-1.01.78-1.64,1.59-2.25,2.38-1.25,1.62-1.17,2.04-2.18,2.93-.54.48-1.21,1.05-2.22,1.17-.23.03-1.02.25-2.02-.39-1.45-.93-1.59-1.3-2.54-2.17-1.27-1.16-3.44-2-4.76-2.43,0,0-2.59-.83-5.66-.89-.46,0-.93,0-.93,0h1.71s-.47-.01-.93,0c-3.07.05-5.66.89-5.66.89-1.32.43-3.49,1.27-4.76,2.43-.95.87-1.09,1.24-2.54,2.17-1,.64-1.79.42-2.02.39-1-.12-1.68-.7-2.22-1.17-1.01-.89-.94-1.32-2.18-2.93-.61-.79-1.24-1.6-2.25-2.38-.92-.71-1.8-1.12-2.41-1.36v7.85c.17.82.45,1.78.95,2.8,1.13,2.33,2.76,3.63,4.4,4.96.56.45,2.42,1.91,5.24,3.16,1.27.56,2.38.93,3.21,1.17-.21-.68-.49-1.67-.72-2.9-.04-.22-.39-1.74-.1-3.95.18-1.37,1.77-2.51,3.51-3.78,1.55-1.14,6.09-1.7,5.92-1.7h0s2.58-.12,2.58-.12"/></g><g id="left_cheek"><path class="cls-1" d="M28.29,60.73v5.08c1.75,0,3.79-.08,5.54-.08-.33-.76-1.23-1.96-2.48-3.13-1.12-1.05-2.32-1.57-3.06-1.87Z"/></g><g id="top_lip"><path class="cls-1" d="M43.63,64.86c2.22-1.26,4.19-1.79,5.49-2.02,1.9-.33,3.39-.24,4.18-.2.79.05,2.81.22,5.27,1.07,1.11.38,1.92.79,2.56,1.11-1.72.37-3.13.6-4.32.76-2.55.32-4.2.54-6.42.36-1.38-.11-2.75-.35-4.27-.62-1.04-.18-1.88-.33-2.49-.46Z"/></g><g id="left_side_burn"><path class="cls-1" d="M31.77,37.1c.43,1.24.88,2.41,1.4,3.59.14,1.46.17,2.94.5,4.62.47,2.42,1.27,4.92,1.92,6.8-.47.59-1.06,1.21-1.59,2.31-.6,1.25-.92,2.18-1.1,2.91-.2.81-.38,2.1-.46,3.4-1.3-.95-2.74-1.97-4.04-2.91,0-3.29-.09-4.96-.09-8.26,0-1.83.06-5.42.06-7.25.28-.82.75-1.85,1.41-2.93.66-1.08,1.41-1.67,2.01-2.29Z"/></g><g id="right_side_burn"><path class="cls-1" d="M73.02,36.87c-.43,1.24-.93,2.58-1.36,3.82-.14,1.46-.3,2.94-.63,4.62-.47,2.42-1.28,4.78-1.93,6.65.47.59,1.17,1.3,1.7,2.41.6,1.25.96,2.22,1.14,2.94.2.81.37,2.12.45,3.42,1.3-.95,2.74-1.97,4.04-2.91,0-3.29.09-4.94.09-8.24,0-1.83-.11-5.45-.19-7.27-.28-.82-.71-1.83-1.37-2.9-.66-1.08-1.36-1.92-1.96-2.54Z"/></g><g id="eyes"><circle class="cls-1" cx="42.1" cy="58.58" r="3.36"/><circle class="cls-1" cx="62.81" cy="58.58" r="3.36"/></g></svg>